<?xml version="1.0" encoding="utf-8"?>
<!-- Generator: Adobe Illustrator 20.0.0, SVG Export Plug-In . SVG Version: 6.00 Build 0)  -->
<svg version="1.1" id="Capa_1" xmlns="http://www.w3.org/2000/svg" xmlns:xlink="http://www.w3.org/1999/xlink" x="0px" y="0px"
	 viewBox="0 0 263.5 296.1" style="enable-background:new 0 0 263.5 296.1;" xml:space="preserve">
<style type="text/css">
	.st0{fill:#191E62;}
</style>
<path class="st0" d="M131.7,0c-33.8,0-65.4,4.4-89,12.3C14.8,21.7,0,35.5,0,52.2v191.3c0,36.2,68,52.6,131.1,52.6
	c32.3,0,63.1-4.2,86.6-11.8c27.3-8.9,43.1-21.8,45.4-37.5c0.2-1,0.3-1.8,0.3-2.7V52.8C263.5,16.5,195.2,0,131.7,0z M131.7,78.3
	c-68.4,0-104.3-18.9-104.3-25.5c0-6.5,35.9-25.4,104.3-25.4S236,46.3,236,52.9C236.1,59.4,200.2,78.3,131.7,78.3z M28,86.5
	c5.6,2.8,12.2,5.3,19.4,7.6v62.7c0,7.7,6.3,14,14,14c7.6,0,14-6.1,14-13.3v-56.8c6.2,1.1,13,2,20,2.7V133c0,7.7,6.3,14,14,14
	s14-6.3,14-14v-28c2.8,0.1,5.7,0.1,8.5,0.1c4.1,0,8.5-0.1,13.4-0.2v74.3c0,7.7,6.3,14,14,14c7.8,0,14-5.9,14-13.3v-77.1
	c25.4-2.9,46.9-8.4,62.4-15.9V242h-0.2v1.5c0,6.5-35.7,25.3-103.8,25.3c-37.6,0-63.1-5.7-77.9-10.5C36.2,252.6,28,246.1,28,243.5
	V86.5L28,86.5z"/>
</svg>
