<?xml version="1.0" encoding="utf-8"?>
<!-- Generator: Adobe Illustrator 20.0.0, SVG Export Plug-In . SVG Version: 6.00 Build 0)  -->
<svg version="1.1" id="Capa_1" xmlns="http://www.w3.org/2000/svg" xmlns:xlink="http://www.w3.org/1999/xlink" x="0px" y="0px"
	 viewBox="0 0 263.5 296.1" style="enable-background:new 0 0 263.5 296.1;" xml:space="preserve">
<style type="text/css">
	.st0{fill:#191E62;}
</style>
<g>
	<g>
		<g>
			<path class="st0" d="M14.2,99.9c6,0,10.8-4.9,10.8-10.8V41h211.6v48.1c0,6,4.9,10.8,10.8,10.8s10.8-4.9,10.8-10.8V30.7
				c0-6-4.9-10.8-10.8-10.8H14.2c-6,0-10.8,4.9-10.8,10.8v58.4C3.4,95,8.3,99.9,14.2,99.9z"/>
			<path class="st0" d="M247.5,104.1c-8.3,0-15-6.7-15-15V45.2H29.2V89c0,8.3-6.7,15-15,15s-15-6.7-15-14.9V30.7c0-8.3,6.7-15,15-15
				h233.3c8.3,0,15,6.7,15,15v58.4C262.5,97.4,255.8,104.1,247.5,104.1z M20.9,36.9h219.8v52.2c0,3.7,3,6.7,6.7,6.7s6.7-3,6.7-6.7
				V30.7c0-3.7-3-6.7-6.7-6.7H14.2c-3.7,0-6.7,3-6.7,6.7v58.4c0,3.7,3,6.7,6.7,6.7s6.7-3,6.7-6.7V36.9L20.9,36.9z"/>
		</g>
		<g>
			<path class="st0" d="M248.5,196.2c-6,0-10.8,4.9-10.8,10.8v48.1H25.6V207c0-6-4.9-10.8-10.8-10.8S4,201.1,4,207v58.4
				c0,6,4.9,10.8,10.8,10.8h232.7c6,0,10.8-4.9,11.9-10.8V207C259.4,201.1,254.5,196.2,248.5,196.2z"/>
			<path class="st0" d="M247.4,280.4H14.8c-8.3,0-15-6.7-15-15V207c0-8.3,6.7-15,15-15s15,6.7,15,15v44h203.8v-43.9
				c0-8.3,6.7-15,15-15c4,0,7.8,1.6,10.6,4.4c2.8,2.8,4.3,6.6,4.3,10.5v58.7l-0.1,0.4C262,274.4,255.2,280.4,247.4,280.4z
				 M14.8,200.4c-3.7,0-6.7,3-6.7,6.7v58.4c0,3.7,3,6.7,6.7,6.7h232.7c3.6,0,6.9-3,7.7-7.1v-58c0-1.8-0.7-3.4-1.9-4.7
				c-1.3-1.3-3-2-4.7-2c-3.7,0-6.7,3-6.7,6.7v52.2H21.5v-52.2C21.5,203.4,18.4,200.4,14.8,200.4z"/>
		</g>
		<g>
			<path class="st0" d="M164.9,198.4c7,6.2,13,2.2,15.2,0l43.3-43.3c4.3-4.3,4.3-10.8,0-15.2L180,96.7c-4.3-4.3-10.8-4.3-15.2,0
				s-4.3,10.8,0,15.2l35.7,35.7l-35.7,35.7C160.5,187.5,160.2,194.3,164.9,198.4z"/>
			<path class="st0" d="M172.5,205.9c-3.3,0-6.9-1.2-10.4-4.4l0,0c-3-2.6-4.6-6.2-4.8-10.1c-0.1-4.1,1.5-8.1,4.5-11.1l32.8-32.8
				l-32.8-32.8c-2.9-2.9-4.4-6.6-4.4-10.5s1.6-7.6,4.4-10.5c2.9-2.9,6.6-4.4,10.5-4.4s7.6,1.6,10.5,4.4l43.3,43.3
				c2.9,2.9,4.4,6.6,4.4,10.5s-1.6,7.6-4.4,10.5l-43.3,43.3C180.4,203.9,176.7,205.9,172.5,205.9z M167.6,195.3
				c4.2,3.7,7.5,2.2,9.5,0.2l43.3-43.3c1.3-1.3,2-3,2-4.6s-0.7-3.3-2-4.6L177,99.6c-1.3-1.3-3-2-4.6-2c-1.7,0-3.3,0.7-4.6,2
				s-2,3-2,4.6c0,1.7,0.7,3.3,2,4.6l38.6,38.6L167.8,186c-1.4,1.4-2.2,3.2-2.1,5C165.7,192.3,166,193.9,167.6,195.3z"/>
		</g>
		<g>
			<path class="st0" d="M97.4,96.7c-4.3-4.3-10.8-4.3-15.2,0L38.9,140c-4.3,4.3-4.3,10.8,0,15.2l43.3,43.3c2.2,2.2,8.3,6,15.2,0.5
				c4.3-4.3,4.3-10.8,0-15.2L61.7,148l35.7-36.3C101.7,107.5,101.7,101,97.4,96.7z"/>
			<path class="st0" d="M90.1,205.9c-4.7,0-8.7-2.4-10.8-4.6L36,158c-5.9-5.9-5.9-15.1,0-21l43.3-43.3c5.9-5.9,15.1-5.9,21,0l0,0
				c5.9,5.9,5.9,15.1,0,21L67.5,148l32.8,32.8c2.9,2.9,4.4,6.6,4.4,10.5s-1.6,7.6-4.4,10.5l-0.3,0.3
				C96.5,204.9,93.2,205.9,90.1,205.9z M89.8,97.6c-1.7,0-3.3,0.7-4.6,2l-43.3,43.3c-2.7,2.7-2.7,6.6,0,9.3l43.3,43.3
				c1,1,4.7,4,9.4,0.4c1.2-1.3,1.9-2.9,1.9-4.5c0-1.7-0.7-3.3-2-4.6l-38.6-38.6L94.5,109c1.3-1.3,2-3,2-4.6s-0.7-3.3-2-4.6
				C93.1,98.2,91.4,97.6,89.8,97.6z"/>
		</g>
	</g>
</g>
</svg>
