<?xml version="1.0" encoding="utf-8"?>
<!-- Generator: Adobe Illustrator 20.0.0, SVG Export Plug-In . SVG Version: 6.00 Build 0)  -->
<svg version="1.1" id="Capa_1" xmlns="http://www.w3.org/2000/svg" xmlns:xlink="http://www.w3.org/1999/xlink" x="0px" y="0px"
	 viewBox="0 0 263.5 296.1" style="enable-background:new 0 0 263.5 296.1;" xml:space="preserve">
<style type="text/css">
	.st0{fill:#191E62;}
</style>
<path class="st0" d="M258.2,126.2c0.5-6.4-2.8-12.2-8.4-14.6L26,13.1c-5.5-2.5-11.4-2-15.6,1.4c-4.1,3.3-6,8.7-4.9,14.1l41.7,241
	v0.1c1.2,6.3,6.2,11.1,12.7,12.1c0.2,0,0.3,0,0.5,0.1c5.9,0.7,11.1-1.9,13.8-6.9l59.1-103.6L247.9,139
	C253.7,137.5,257.8,132.4,258.2,126.2z M200.8,122l-81.2,23c-3.4,0.5-6.6,3-8.6,6.6l-42,73.5L38.7,50.5L200.8,122z"/>
</svg>
