<?xml version="1.0" encoding="utf-8"?>
<!-- Generator: Adobe Illustrator 20.0.0, SVG Export Plug-In . SVG Version: 6.00 Build 0)  -->
<svg version="1.1" id="Layer_1" xmlns="http://www.w3.org/2000/svg" xmlns:xlink="http://www.w3.org/1999/xlink" x="0px" y="0px"
	 viewBox="0 0 60 60" style="enable-background:new 0 0 60 60;" xml:space="preserve">
<style type="text/css">
	.st0{fill:#FD4F3F;}
	.st1{fill:#404040;}
	.st2{fill:#FFFFFF;}
	.st3{fill:#DFE1E5;}
	.st4{fill:#191E62;}
</style>
<path class="st0" d="M30,0c16.5,0,30,13.5,30,30S46.5,60,30,60S0,46.5,0,30S13.5,0,30,0"/>
<g>
	<path class="st1" d="M29.8,55c-0.4,0-1-0.3-1-0.7v-2.1c0-0.4,0.6-0.7,1-0.7c0.4,0,1,0.3,1,0.7v2.1C30.8,54.7,30.2,55,29.8,55"/>
	<path class="st1" d="M30,46.5c-1,0-1.9,0.4-2.6,1.2c-0.3,0.3-0.2,0.8,0.1,1c0.3,0.3,0.8,0.2,1-0.1c0.8-0.9,2.3-0.9,3,0
		c0.1,0.2,0.3,0.2,0.5,0.2c0.2,0,0.3-0.1,0.5-0.2c0.3-0.3,0.3-0.7,0.1-1C31.9,47,30.9,46.5,30,46.5"/>
	<path class="st1" d="M34.1,42.2h-8.4c-0.4,0-0.7,0.2-0.7,0.6c0,0.4,0.3,0.6,0.7,0.6h8.4c0.4,0,0.7-0.2,0.7-0.6
		C34.9,42.5,34.5,42.2,34.1,42.2"/>
	<path class="st1" d="M25.6,29.8c0-0.8-0.7-1.5-1.5-1.5c-0.8,0-1.5,0.7-1.5,1.5c0,0.8,0.7,1.5,1.5,1.5C25,31.3,25.6,30.7,25.6,29.8"
		/>
	<path class="st1" d="M27.2,27.2c0.4,0.2,0.8,0,0.9-0.4c0.2-0.4,0-0.8-0.4-0.9c-1.6-0.7-2.4-0.8-3.9-0.7c-1.7,0-3.2,1.1-4,2
		c-0.2,0.3-0.2,0.8,0.1,1c0.1,0.1,0.3,0.2,0.4,0.2c0.2,0,0.4-0.1,0.6-0.3c0.5-0.7,1.7-1.4,2.9-1.5C25.3,26.6,25.9,26.6,27.2,27.2"/>
	<path class="st1" d="M35.8,28.3c-0.8,0-1.5,0.7-1.5,1.5c0,0.8,0.7,1.5,1.5,1.5c0.8,0,1.5-0.7,1.5-1.5C37.2,29,36.6,28.3,35.8,28.3"
		/>
	<path class="st2" d="M46.2,33.1c-0.2-1.9-1.2-4.2-2.7-5.2c0.2-2.1,0.3-4.3,0.4-6.8c0-1.7-0.6-3.3-1.5-4.9c0.1-0.2,0.1-0.4,0.1-0.7
		c0-1.1-0.7-2-1.7-2.2c0.1-0.4,0.2-0.7,0.2-1.1c0-1.7-1.4-3-3-3c0,0,0,0,0,0c-0.1-2-1.8-3.5-3.8-3.5c-0.7,0-1.3,0.2-1.9,0.5
		C31.8,5.5,31,5,30.1,5c-0.8,0-1.5,0.4-1.9,1C27.6,5.4,26.8,5,25.9,5c-1.9,0-3.5,1.6-3.5,3.5c0,0,0,0,0,0.1c-0.2,0-0.4-0.1-0.6-0.1
		c-1.6,0-2.8,1.3-2.8,2.8c0,0.3,0.1,0.6,0.2,0.9c-1.3,0.1-2.3,1.2-2.3,2.5c0,0.6,0.2,1.2,0.6,1.6c-0.9,1.6-1.5,3.3-1.4,4.9
		c0.1,2.4,0.3,4.6,0.5,6.6c-1.5,1-2.5,3.3-2.7,5.1c-0.2,2.1-0.3,5.8,1.6,7.4c0.6,0.5,1.3,0.7,2.1,0.7c0.3,0,0.7-0.1,1.1-0.1
		c0,0.1,0,0.1,0,0.2l0.1,0.5c0.8,3.6,2.8,9,4.5,11c1.7,2,4.6,3,6.6,3h0c1.4,0,4.9-0.6,7-3.1c1.5-1.8,3.5-6.7,4.4-10.8l0.1-0.6
		c0.4,0.1,0.7,0.1,1,0.1c0.8,0,1.5-0.3,2.1-0.7C46.5,38.9,46.4,35.2,46.2,33.1"/>
	<path class="st1" d="M39.9,27.2c-0.7-0.9-2.3-2-4-2c-1.4,0-2.3,0-3.9,0.7c-0.4,0.2-0.5,0.6-0.4,0.9c0.2,0.4,0.6,0.5,0.9,0.4
		c1.3-0.6,2-0.6,3.3-0.6c1.1,0,2.3,0.8,2.9,1.5c0.1,0.2,0.4,0.3,0.6,0.3c0.2,0,0.3,0,0.4-0.2C40.1,28,40.2,27.5,39.9,27.2"/>
	<path class="st1" d="M26.2,38.3c0.5,1,2,1.5,4.7,1.5c0.4,0,0.7-0.3,0.7-0.7c0-0.4-0.3-0.7-0.7-0.7c-2.6,0-3.3-0.5-3.4-0.7
		c0,0,0-0.1,0.2-0.4c1.2-1.5,2.7-5.2,2.9-7.4c0-0.4-0.2-0.8-0.6-0.8c-0.4,0-0.8,0.2-0.8,0.6c-0.2,1.9-1.6,5.4-2.6,6.7
		C25.9,37.2,26,37.9,26.2,38.3"/>
	<path class="st1" d="M30,46.5c-1,0-1.9,0.4-2.6,1.2c-0.3,0.3-0.2,0.8,0.1,1c0.3,0.3,0.8,0.2,1-0.1c0.8-0.9,2.3-0.9,3,0
		c0.1,0.2,0.3,0.2,0.5,0.2c0.2,0,0.3-0.1,0.5-0.2c0.3-0.3,0.3-0.7,0.1-1C31.9,47,30.9,46.5,30,46.5"/>
	<path class="st1" d="M34.1,42.2h-8.4c-0.4,0-0.7,0.2-0.7,0.6c0,0.4,0.3,0.6,0.7,0.6h8.4c0.4,0,0.7-0.2,0.7-0.6
		C34.9,42.5,34.5,42.2,34.1,42.2"/>
	<path class="st1" d="M25.6,29.8c0-0.8-0.7-1.5-1.5-1.5c-0.8,0-1.5,0.7-1.5,1.5c0,0.8,0.7,1.5,1.5,1.5C25,31.3,25.6,30.7,25.6,29.8"
		/>
	<path class="st1" d="M27.2,27.2c0.4,0.2,0.8,0,0.9-0.4c0.2-0.4,0-0.8-0.4-0.9c-1.6-0.7-2.5-0.8-3.9-0.7c-1.7,0-3.2,1.1-4,2
		c-0.2,0.3-0.2,0.8,0.1,1c0.1,0.1,0.3,0.2,0.4,0.2c0.2,0,0.4-0.1,0.6-0.3c0.5-0.7,1.7-1.4,2.9-1.5C25.3,26.6,25.9,26.6,27.2,27.2"/>
	<path class="st1" d="M35.8,28.3c-0.8,0-1.5,0.7-1.5,1.5c0,0.8,0.7,1.5,1.5,1.5c0.8,0,1.5-0.7,1.5-1.5C37.2,29,36.6,28.3,35.8,28.3"
		/>
	<path class="st1" d="M36,25.2c-1.4,0-2.3,0-3.9,0.7c-0.4,0.2-0.5,0.6-0.4,0.9c0.2,0.4,0.6,0.5,0.9,0.4c1.3-0.6,2-0.6,3.3-0.6
		c1.1,0,2.3,0.8,2.9,1.5c0.1,0.2,0.4,0.3,0.6,0.3c0.2,0,0.3,0,0.4-0.2c0.3-0.2,0.4-0.7,0.1-1C39.2,26.2,37.6,25.2,36,25.2"/>
	<path class="st1" d="M26.2,38.3c0.5,1,2,1.5,4.7,1.5c0.4,0,0.7-0.3,0.7-0.7c0-0.4-0.3-0.7-0.7-0.7c-2.6,0-3.3-0.5-3.4-0.7
		c0,0,0-0.1,0.2-0.4c1.2-1.5,2.7-5.2,2.9-7.4c0-0.4-0.2-0.8-0.6-0.8c-0.4,0-0.8,0.2-0.8,0.6c-0.2,1.9-1.6,5.4-2.6,6.7
		C25.9,37.2,26,37.9,26.2,38.3"/>
	<path class="st3" d="M43.4,27.9c0.2-2.1,0.3-4.3,0.4-6.8c0-1.7-0.6-3.3-1.5-4.9c0.1-0.2,0.1-0.4,0.1-0.7c0-1.1-0.7-2-1.7-2.2
		c0.1-0.4,0.2-0.7,0.2-1.1c0-1.7-1.4-3-3-3c0,0,0,0,0,0c-0.1-2-1.8-3.5-3.8-3.5c-0.7,0-1.3,0.2-1.9,0.5C31.8,5.5,31,5,30.1,5
		c0,0-0.1,0-0.1,0v25.4l-3.2,7.7l3,0.7v16.9c1.6,0,5-0.6,7.1-3.1c1.5-1.8,3.5-6.7,4.4-10.8l0.1-0.6c0.4,0.1,0.7,0.1,1,0.1
		c0.8,0,1.5-0.3,2.1-0.7c2-1.6,1.9-5.3,1.6-7.4C46,31.2,44.9,28.9,43.4,27.9z"/>
	<path class="st4" d="M30,46.5c-1,0-1.9,0.4-2.6,1.2c-0.3,0.3-0.2,0.8,0.1,1c0.3,0.3,0.8,0.2,1-0.1c0.8-0.9,2.3-0.9,3,0
		c0.1,0.2,0.3,0.2,0.5,0.2c0.2,0,0.3-0.1,0.5-0.2c0.3-0.3,0.3-0.7,0.1-1C31.9,47,30.9,46.5,30,46.5"/>
	<path class="st4" d="M34.1,42.2h-8.4c-0.4,0-0.7,0.2-0.7,0.6c0,0.4,0.3,0.6,0.7,0.6h8.4c0.4,0,0.7-0.2,0.7-0.6
		C34.9,42.5,34.5,42.2,34.1,42.2"/>
	<path class="st4" d="M25.6,29.8c0-0.8-0.7-1.5-1.5-1.5c-0.8,0-1.5,0.7-1.5,1.5c0,0.8,0.7,1.5,1.5,1.5C25,31.3,25.6,30.7,25.6,29.8"
		/>
	<path class="st4" d="M27.2,27.2c0.4,0.2,0.8,0,0.9-0.4c0.2-0.4,0-0.8-0.4-0.9c-1.6-0.7-2.4-0.8-3.9-0.7c-1.7,0-3.2,1.1-4,2
		c-0.2,0.3-0.2,0.8,0.1,1c0.1,0.1,0.3,0.2,0.4,0.2c0.2,0,0.4-0.1,0.6-0.3c0.5-0.7,1.7-1.4,2.9-1.5C25.3,26.6,25.9,26.6,27.2,27.2"/>
	<path class="st4" d="M35.8,28.3c-0.8,0-1.5,0.7-1.5,1.5c0,0.8,0.7,1.5,1.5,1.5c0.8,0,1.5-0.7,1.5-1.5C37.2,29,36.6,28.3,35.8,28.3"
		/>
	<path class="st4" d="M36,25.2c-1.4,0-2.3,0-3.9,0.7c-0.4,0.2-0.5,0.6-0.4,0.9c0.2,0.4,0.6,0.5,0.9,0.4c1.3-0.6,2-0.6,3.3-0.6
		c1.1,0,2.3,0.8,2.9,1.5c0.1,0.2,0.4,0.3,0.6,0.3c0.2,0,0.3,0,0.4-0.2c0.3-0.2,0.4-0.7,0.1-1C39.2,26.2,37.6,25.2,36,25.2"/>
	<path class="st4" d="M26.2,38.3c0.5,1,2,1.5,4.7,1.5c0.4,0,0.7-0.3,0.7-0.7c0-0.4-0.3-0.7-0.7-0.7c-2.6,0-3.3-0.5-3.4-0.7
		c0,0,0-0.1,0.2-0.4c1.2-1.5,2.7-5.2,2.9-7.4c0-0.4-0.2-0.8-0.6-0.8c-0.4,0-0.8,0.2-0.8,0.6c-0.2,1.9-1.6,5.4-2.6,6.7
		C25.9,37.2,26,37.9,26.2,38.3"/>
	<path class="st4" d="M43.6,39.3c-0.5,0.4-1.1,0.5-1.9,0.3c0.5-2.3,1.1-5.6,1.6-9.9c0.7,0.8,1.3,2.2,1.4,3.5
		C45,36.2,44.6,38.5,43.6,39.3 M39.7,41.3c-0.8,3.9-2.5,8.5-3.9,10.1c-1.6,1.9-4.5,2.6-5.1,2.7v-1.4c0-0.4-0.5-0.7-0.9-0.7
		c-0.4,0-0.9,0.3-0.9,0.7v1.4c-1.3-0.1-3.2-1.1-4.6-2.8c-1.5-1.8-3.2-6.6-4-10l-0.1-0.5c-0.7-3.1-1.7-8.6-2.3-16.5
		c0.7-1.5,1.3-2.4,2.6-2.7v-4.7c0-0.2,1.3-0.9,1.5-1.8c0.3,0.1,0.5,0.3,0.9,0.3c-0.1,0.3-0.3,0.6-0.4,1c-0.5,1.9,0.5,3.2,1.7,3.6
		c0.3,0.1,0.6,0.2,0.9,0.2c1,0,2.1-0.5,2.5-1.6c0.2-0.4,0-0.8-0.4-0.9c-0.4-0.2-0.8,0-0.9,0.4C26,19,25.2,19.2,24.6,19
		c-0.4-0.1-1.2-0.6-0.8-1.9c0.1-0.4,0.2-0.8,0.4-1.1c0.2,0.4,0.6,0.7,1.1,0.9c0.9,0.3,1.6,0.3,2.2,0c0.6-0.3,1-0.8,1.2-1.6
		c0.1-0.2,0.1-0.5,0-0.7c0.2,0,0.5,0.1,0.7,0.1c0,0,0,0,0,0c0,0,0,0.1,0,0.1c-0.3,1.3,0.5,2.6,1.8,2.9c0.2,0,0.4,0.1,0.5,0.1
		c0.5,0,1.1-0.2,1.5-0.5c0.3-0.2,0.4-0.7,0.1-1c-0.2-0.3-0.7-0.4-1-0.1c-0.2,0.2-0.5,0.3-0.8,0.2c-0.5-0.1-0.9-0.7-0.8-1.2
		c0.1-0.3,0.2-0.5,0.4-0.6c0.2-0.1,0.4-0.2,0.7-0.1c0.6,0.5,1.4,0.8,2.2,0.8c0.7,0,1.3-0.2,1.9-0.6c0.5,0.4,1.2,0.7,1.9,0.7
		c0,0,0,0,0,0c0,0.1-0.4,0.2-0.4,0.3c0,1.1,0.9,2,1.6,2.2v3.9c1.3,0.3,2.2,1.3,2.9,2.8c-0.4,7.5-1.4,12.6-2.1,15.9L39.7,41.3z
		 M16.4,39.3c-1-0.8-1.4-3.1-1.1-6.1c0.1-1.3,0.7-2.6,1.4-3.5c0.5,4.2,1.1,7.5,1.6,9.8C17.5,39.8,16.9,39.7,16.4,39.3 M26.3,13.6
		c0.6,0,1.1,0.5,1.1,1.1c0,0.6-0.5,1.1-1.1,1.1c-0.6,0-1.1-0.5-1.1-1.1C25.2,14.1,25.7,13.6,26.3,13.6 M46.2,33.1
		c-0.2-1.9-1.2-4.2-2.7-5.2c0.2-2.1,0.3-4.3,0.4-6.8c0-1.7-0.6-3.3-1.5-4.9c0.1-0.2,0.1-0.4,0.1-0.7c0-1.1-0.7-2-1.7-2.2
		c0.1-0.4,0.2-0.7,0.2-1.1c0-1.7-1.4-3-3-3c0,0,0,0,0,0c-0.1-2-1.8-3.5-3.8-3.5c-0.7,0-1.3,0.2-1.9,0.5C31.8,5.5,31,5,30.1,5
		c-0.8,0-1.5,0.4-1.9,1C27.6,5.4,26.8,5,25.9,5c-1.9,0-3.5,1.6-3.5,3.5c0,0,0,0,0,0.1c-0.2,0-0.4-0.1-0.6-0.1
		c-1.6,0-2.8,1.3-2.8,2.8c0,0.3,0.1,0.6,0.2,0.9c-1.3,0.1-2.3,1.2-2.3,2.5c0,0.6,0.2,1.2,0.6,1.6c-0.9,1.6-1.5,3.3-1.4,4.9
		c0.1,2.4,0.3,4.6,0.5,6.6c-1.5,1-2.5,3.3-2.7,5.1c-0.2,2.1-0.3,5.8,1.6,7.4c0.6,0.5,1.3,0.7,2.1,0.7c0.3,0,0.7-0.1,1.1-0.1
		c0,0.1,0,0.1,0,0.2l0.1,0.5c0.8,3.6,2.8,9,4.5,11c1.7,2,4.6,3,6.6,3h0c1.4,0,4.9-0.6,7-3.1c1.5-1.8,3.5-6.7,4.4-10.8l0.1-0.6
		c0.4,0.1,0.7,0.1,1,0.1c0.8,0,1.5-0.3,2.1-0.7C46.5,38.9,46.4,35.2,46.2,33.1"/>
</g>
</svg>
