<?xml version="1.0" encoding="utf-8"?>
<!-- Generator: Adobe Illustrator 20.0.0, SVG Export Plug-In . SVG Version: 6.00 Build 0)  -->
<svg version="1.1" id="Capa_1" xmlns="http://www.w3.org/2000/svg" xmlns:xlink="http://www.w3.org/1999/xlink" x="0px" y="0px"
	 viewBox="0 0 263.5 296.1" style="enable-background:new 0 0 263.5 296.1;" xml:space="preserve">
<style type="text/css">
	.st0{fill:#191E62;}
</style>
<g>
	<path class="st0" d="M147.6,222.6v-12.7c0-5.4,0-10.9,0-16.4c0-8.5,0-50.5,0-59c0-2.7-0.2-5.1-0.7-7.1c-1.5-6.5-7.4-11.1-14.2-11.4
		c-3.9-0.1-7.4,0.9-10.1,3.1c-0.4,0.3-0.8,0.6-1.1,1c-0.8,0.8-1.5,1.6-2.1,2.6c-1.8,2.8-2.8,6.4-2.8,10.5c0,14,0,61.4,0,75.4
		c0,9.3,0,18.7,0,28c0,14,0,28.1,0,42.3c0,1.8,0.2,3.6,0.6,5.4c1.6,7,7.8,11.8,14.8,11.8c0.9,0,1.8-0.1,2.7-0.2
		c8.2-1.5,13-7.6,13-17c0-13.2,0-26.6,0-39.6C147.6,233.7,147.6,228.1,147.6,222.6z"/>
	<path class="st0" d="M263.5,184.9c0-2.4,0-4.8,0-7.1c0-5.1,0-39.9,0-45.1c-0.5-44-18-79.6-52.1-105.7
		c-30.2-23.1-65-31.4-103.5-24.7c-14.6,2.6-28.7,7.8-42,15.5c-6.3,3.7-9.1,9.3-8,16.3c0.9,6.1,5.5,10.9,11.7,12.4
		c5,1.2,9.3-0.6,13.1-2.6c28.7-15.6,57.8-17.5,86.5-5.5c37.8,15.7,58.9,44.1,62.5,84.3c1.3,14.8,1.2,59.6,1,74.4
		c-0.1,6.6-0.2,13.5-0.1,20.2c0.1,10.2,6.3,17.1,15.3,17.2h0.1l0,0c3.1,0,5.9-0.8,8.3-2.4c0.8-0.5,1.5-1.1,2.2-1.8
		c3.1-3.1,4.9-7.6,4.9-12.9c0-7.6,0-15.3,0-22.7C263.5,191.4,263.5,188.1,263.5,184.9z"/>
	<path class="st0" d="M151.5,60.6c-1.6-0.5-3.2-0.8-4.8-1.1c-0.6-0.1-1.1-0.2-1.7-0.3c-20-4.2-41.3,1.1-58.4,14.5
		c-17,13.3-27.1,32.5-27.8,52.7c-0.1,2.6-0.2,5.2-0.2,7.8s-0.1,5.2-0.1,7.8c0,5.2,0,43.8,0.1,48.9c0,4.4,0.1,8.8,0.1,13.1h-0.2v1
		c0,4.6,0,9.2,0,13.8c0,11-0.1,19.4,0.1,30.5c0.1,8.4,6.7,14.8,15.2,14.9l0,0c8.3,0,14.8-6.2,15.5-14.7c0.1-1.1,0.1-2.3,0.1-3.4v-1
		c0-8.5,0-14,0-22.5c0-16.7,0-67.4,0-84.4c0-2.4,0-4.9,0-7.3c0.1-18.1,12.1-34.2,29.8-40c8.6-2.8,17-1.8,25.7-0.4
		c8,1.3,15.4-4,17.1-12.1C163.8,70.7,159.1,62.9,151.5,60.6z"/>
	<path class="st0" d="M39.6,59c-0.9-0.5-1.9-0.9-2.9-1.3c-1.5-0.5-2.9-0.7-4.4-0.8c-4.4-0.1-8.7,1.7-11.8,5.2
		c-0.7,0.8-1.3,1.6-1.9,2.6C11.9,76,7.1,87.6,4.3,99.2c-1.3,5.3-2.2,10.7-2.7,16c-0.8,9.4-1.1,18.9-1.3,28.2
		c-0.1,4.1-0.2,41.8-0.3,46v-2.9l0,0c0,3,0,5.9,0,8.9c0,7.7,0,15.7,0,23.5c0.1,6.8,4.6,12.3,10.8,14.5c1.7,0.6,3.5,0.9,5.2,0.9
		c3.1,0,6.1-0.9,8.7-2.8c4.1-2.9,6.5-7.6,6.5-12.9l0.1-5.1c0.1-14,0.3-58-0.1-72.2c-0.6-23.7,4-43.8,14.2-61.5
		c2-3.5,2.6-7.6,1.5-11.5C45.8,64.4,43.2,61,39.6,59z"/>
	<path class="st0" d="M203.1,113.2c-1.6-8.4-9.3-13.6-18.1-12c-7.9,1.4-13.2,8.7-12.4,17.4c0.9,10,1.6,18.4,1.7,27.1
		c0.1,15.1,0.1,63.9,0.1,78.7c0,8.6,0,14.3,0,23c0,9.5,5.8,16.2,14.3,16.7c0.4,0,0.8,0,1.1,0c4.1,0,7.7-1.3,10.5-3.9
		c3.1-2.9,4.9-7.3,5-12.4c0.1-10.8,0.1-18.8,0.1-29.4c0-4.2,0-8.5,0-12.7v-1c0-3.7,0-7.4,0-11.1c0.1-8.7,0.1-51.3-0.1-60.2
		C205.2,127.1,204.4,120.3,203.1,113.2z"/>
</g>
</svg>
