<?xml version="1.0" encoding="iso-8859-1"?>
<!-- Generator: Adobe Illustrator 20.0.0, SVG Export Plug-In . SVG Version: 6.00 Build 0)  -->
<svg version="1.1" id="Capa_1" xmlns="http://www.w3.org/2000/svg" xmlns:xlink="http://www.w3.org/1999/xlink" x="0px" y="0px"
	 viewBox="0 0 263.494 296.147" style="enable-background:new 0 0 263.494 296.147;" xml:space="preserve">
<g>
	<path style="fill:#2B3B4F;" d="M147.551,222.556l0.003-12.729c0.002-5.394,0.002-10.869,0.001-16.364
		c-0.002-8.499-0.009-50.545-0.034-59.028c-0.008-2.733-0.247-5.055-0.729-7.097c-1.53-6.471-7.355-11.14-14.166-11.355
		c-3.914-0.121-7.389,0.935-10.133,3.072c-0.392,0.305-0.769,0.632-1.13,0.981c-0.806,0.779-1.517,1.646-2.13,2.596
		c-1.84,2.849-2.802,6.433-2.808,10.544c-0.021,13.989-0.03,61.438-0.032,75.423c-0.001,9.323,0.001,18.656,0.005,28.016
		c0.006,14.039,0.017,28.138,0.029,42.347c0.001,1.8,0.203,3.606,0.598,5.37c1.574,7.02,7.804,11.814,14.81,11.814
		c0.89,0,1.793-0.078,2.7-0.238c8.226-1.453,12.962-7.644,12.996-16.984c0.047-13.21,0.037-26.642,0.028-39.63
		C147.555,233.714,147.551,228.135,147.551,222.556z"/>
	<path style="fill:#2B3B4F;" d="M263.468,184.854c0-2.376,0.007-4.751,0.013-7.127c0.015-5.061,0.028-39.902-0.023-45.05
		c-0.451-44.031-17.971-79.6-52.076-105.721C181.179,3.824,146.344-4.48,107.841,2.276c-14.553,2.553-28.681,7.778-41.99,15.53
		c-6.31,3.675-9.07,9.31-7.982,16.294c0.943,6.051,5.539,10.921,11.706,12.408c5.035,1.215,9.288-0.552,13.133-2.641
		c28.723-15.607,57.834-17.47,86.524-5.535c37.844,15.742,58.866,44.114,62.483,84.325c1.333,14.81,1.159,59.638,0.991,74.357
		c-0.075,6.623-0.154,13.472-0.094,20.2c0.091,10.214,6.253,17.118,15.333,17.181c0.041,0,0.081,0,0.122,0c0,0,0.001,0,0.001,0
		c3.091,0,5.904-0.805,8.279-2.353c0.791-0.516,1.534-1.114,2.222-1.793c3.121-3.078,4.855-7.643,4.884-12.852
		c0.042-7.582,0.032-15.288,0.023-22.741C263.472,191.389,263.468,188.121,263.468,184.854z"/>
	<path style="fill:#2B3B4F;" d="M151.504,60.587c-1.575-0.484-3.203-0.802-4.777-1.108c-0.553-0.107-1.107-0.215-1.657-0.33
		c-20.011-4.17-41.287,1.116-58.376,14.5c-16.973,13.293-27.116,32.516-27.828,52.738c-0.091,2.582-0.153,5.176-0.194,7.772
		c-0.041,2.596-0.06,5.196-0.064,7.79c-0.009,5.188,0.039,43.844,0.086,48.925c0.041,4.376,0.081,8.752,0.087,13.127H58.57v1
		c0,4.615-0.016,9.231-0.033,13.847c-0.039,10.959-0.079,19.368,0.111,30.514c0.145,8.446,6.699,14.83,15.246,14.851
		c0.014,0,0.026,0,0.04,0c8.311-0.001,14.818-6.165,15.478-14.672c0.089-1.148,0.081-2.303,0.073-3.419l-0.005-0.992
		c0.003-8.479-0.007-14.036-0.016-22.516c-0.018-16.707-0.038-67.399,0.042-84.446c0.011-2.435,0.025-4.867,0.041-7.294
		c0.117-18.142,12.113-34.199,29.848-39.956c8.579-2.786,17.03-1.795,25.652-0.435c8.026,1.264,15.391-3.958,17.14-12.147
		C163.813,70.727,159.12,62.93,151.504,60.587z"/>
	<path style="fill:#2B3B4F;" d="M39.554,58.985c-0.936-0.521-1.896-0.939-2.868-1.255c-1.457-0.475-2.941-0.723-4.411-0.756
		c-4.411-0.098-8.7,1.745-11.787,5.232c-0.686,0.775-1.313,1.631-1.869,2.565C11.93,76.012,7.136,87.553,4.29,99.239
		c-1.294,5.312-2.185,10.653-2.669,16.011c-0.847,9.372-1.055,18.941-1.257,28.196c-0.089,4.108-0.182,41.844-0.329,46.014
		L0,186.585l-0.001,0.016c-0.001,2.966-0.008,5.933-0.015,8.899c-0.018,7.707-0.036,15.676,0.048,23.517
		c0.073,6.796,4.558,12.343,10.836,14.478c1.728,0.588,3.486,0.878,5.216,0.878c3.106,0,6.118-0.935,8.694-2.757
		c4.101-2.902,6.484-7.615,6.536-12.93l0.052-5.148c0.145-13.953,0.295-57.99-0.085-72.174
		c-0.634-23.698,4.001-43.813,14.168-61.496c2.041-3.549,2.57-7.646,1.491-11.537C45.849,64.399,43.157,60.993,39.554,58.985z"/>
	<path style="fill:#2B3B4F;" d="M203.143,113.236c-1.551-8.396-9.317-13.563-18.068-12.006c-7.949,1.409-13.152,8.735-12.372,17.419
		c0.904,10.041,1.602,18.41,1.688,27.086c0.148,15.074,0.125,63.893,0.104,78.719c-0.013,8.63-0.025,14.336-0.006,22.965
		c0.021,9.494,5.783,16.212,14.34,16.716c0.386,0.023,0.769,0.034,1.148,0.034c4.11,0,7.707-1.337,10.457-3.899
		c3.14-2.928,4.899-7.329,4.952-12.395c0.112-10.767,0.087-18.789,0.063-29.373c-0.01-4.229-0.019-8.459-0.021-12.688l0.042-1
		c0-3.697,0.021-7.396,0.042-11.093c0.05-8.739,0.102-51.263-0.14-60.152C205.197,127.133,204.447,120.292,203.143,113.236z"/>
</g>
</svg>
