<?xml version="1.0" encoding="iso-8859-1"?>
<!-- Generator: Adobe Illustrator 20.0.0, SVG Export Plug-In . SVG Version: 6.00 Build 0)  -->
<svg version="1.1" id="Capa_1" xmlns="http://www.w3.org/2000/svg" xmlns:xlink="http://www.w3.org/1999/xlink" x="0px" y="0px"
	 viewBox="0 0 263.494 296.147" style="enable-background:new 0 0 263.494 296.147;" xml:space="preserve">
<g>
	<g>
		<g>
			<path style="fill:#2B3B4F;" d="M14.232,99.881c5.969,0,10.848-4.879,10.848-10.848V41.009h211.558v48.076
				c0,5.969,4.879,10.848,10.848,10.848s10.848-4.879,10.848-10.848V30.732c0-5.969-4.879-10.848-10.848-10.848H14.232
				c-5.969,0-10.848,4.879-10.848,10.848v58.353C3.384,95.002,8.263,99.881,14.232,99.881z"/>
			<path style="fill:#2B3B4F;" d="M247.484,104.078c-8.267,0-14.991-6.725-14.991-14.992V45.153H29.224v43.88
				c0,8.267-6.726,14.992-14.992,14.992S-0.76,97.323-0.76,89.085V30.732c0-8.267,6.725-14.992,14.992-14.992h233.253
				c8.267,0,14.992,6.725,14.992,14.992v58.353C262.477,97.352,255.751,104.078,247.484,104.078z M20.935,36.864h219.847v52.221
				c0,3.696,3.007,6.703,6.702,6.703c3.696,0,6.703-3.007,6.703-6.703V30.732c0-3.696-3.007-6.703-6.703-6.703H14.231
				c-3.696,0-6.703,3.007-6.703,6.703v58.353c0,3.667,3.007,6.651,6.703,6.651s6.703-3.007,6.703-6.703L20.935,36.864L20.935,36.864
				z"/>
		</g>
		<g>
			<path style="fill:#2B3B4F;" d="M248.523,196.214c-5.969,0-10.848,4.879-10.848,10.848v48.076H25.598v-48.076
				c0-5.969-4.879-10.848-10.848-10.848s-10.848,4.879-10.848,10.848v58.353c0,5.969,4.879,10.848,10.848,10.848h232.682
				c5.969,0,10.848-4.879,11.886-10.848V207.01C259.37,201.093,254.492,196.214,248.523,196.214z"/>
			<path style="fill:#2B3B4F;" d="M247.433,280.407H14.75c-8.267,0-14.992-6.726-14.992-14.993v-58.353
				c0-8.267,6.725-14.991,14.992-14.991s14.992,6.725,14.992,14.991v43.933H233.53v-43.933c0-8.267,6.725-14.991,14.991-14.991
				c4.019,0,7.795,1.576,10.633,4.44c2.812,2.836,4.342,6.578,4.307,10.536v58.727l-0.062,0.352
				C261.963,274.401,255.246,280.407,247.433,280.407z M14.75,200.359c-3.696,0-6.703,3.007-6.703,6.702v58.353
				c0,3.696,3.007,6.703,6.703,6.703h232.682c3.618,0,6.897-3.026,7.742-7.092v-58.016c0.015-1.766-0.662-3.41-1.905-4.665
				c-1.27-1.281-2.956-1.986-4.747-1.986c-3.695,0-6.702,3.007-6.702,6.702v52.222H21.454V207.06
				C21.454,203.366,18.447,200.359,14.75,200.359z"/>
		</g>
		<g>
			<path style="fill:#2B3B4F;" d="M164.86,198.394c7.007,6.176,12.976,2.18,15.156,0l43.287-43.287
				c4.308-4.308,4.308-10.848,0-15.156l-43.339-43.287c-4.308-4.308-10.848-4.308-15.156,0s-4.308,10.848,0,15.156l35.709,35.709
				l-35.709,35.709C160.5,187.546,160.241,194.293,164.86,198.394z"/>
			<path style="fill:#2B3B4F;" d="M172.53,205.863c-3.276,0-6.85-1.222-10.41-4.36l-0.011-0.01
				c-2.956-2.623-4.646-6.204-4.761-10.083c-0.12-4.057,1.531-8.104,4.53-11.103l32.778-32.778l-32.778-32.779
				c-2.867-2.867-4.445-6.598-4.445-10.509c0-3.91,1.578-7.642,4.445-10.509c2.867-2.866,6.598-4.445,10.508-4.445
				c3.911,0,7.642,1.578,10.508,4.445l43.338,43.285c2.868,2.868,4.446,6.6,4.446,10.511c0,3.91-1.578,7.642-4.445,10.508
				l-43.287,43.287C180.399,203.872,176.708,205.863,172.53,205.863z M167.604,195.288c4.244,3.738,7.498,2.157,9.482,0.175
				l43.287-43.287c1.3-1.301,2.017-2.952,2.017-4.648s-0.716-3.347-2.017-4.647l-43.338-43.286
				c-1.302-1.302-2.953-2.019-4.648-2.019c-1.696,0-3.346,0.716-4.647,2.017c-1.3,1.301-2.017,2.951-2.017,4.647
				c0,1.696,0.716,3.347,2.017,4.647l38.64,38.64l-38.64,38.64c-1.391,1.391-2.158,3.212-2.106,4.995
				C165.666,192.275,166.035,193.891,167.604,195.288z"/>
		</g>
		<g>
			<path style="fill:#2B3B4F;" d="M97.375,96.663c-4.308-4.308-10.848-4.308-15.156,0L38.932,139.95
				c-4.308,4.308-4.308,10.848,0,15.156l43.287,43.287c2.18,2.18,8.305,6.021,15.156,0.519c4.308-4.308,4.308-10.848,0-15.156
				l-35.709-35.709l35.709-36.28C101.683,107.459,101.683,100.971,97.375,96.663z"/>
			<path style="fill:#2B3B4F;" d="M90.115,205.907c-4.706,0-8.65-2.406-10.826-4.584l-43.287-43.287
				c-5.892-5.893-5.892-15.125,0-21.018l43.287-43.287c5.893-5.892,15.124-5.892,21.017,0h0.001c5.878,5.878,5.878,15.087,0,20.965
				l-32.802,33.327l32.802,32.802c2.866,2.866,4.445,6.597,4.445,10.508s-1.578,7.642-4.445,10.508l-0.335,0.302
				C96.547,204.893,93.17,205.907,90.115,205.907z M89.797,97.574c-1.65,0-3.301,0.673-4.647,2.02l-43.287,43.287
				c-2.693,2.693-2.693,6.602,0,9.295l43.287,43.287c1.021,1.021,4.691,4.03,9.447,0.362c1.205-1.275,1.865-2.861,1.865-4.491
				c0-1.696-0.716-3.346-2.017-4.647L55.828,148.07l38.594-39.211c1.323-1.325,2.04-2.966,2.04-4.645s-0.716-3.32-2.017-4.621
				C93.098,98.248,91.448,97.574,89.797,97.574z"/>
		</g>
	</g>
</g>
</svg>
