<?xml version="1.0" encoding="iso-8859-1"?>
<!-- Generator: Adobe Illustrator 20.0.0, SVG Export Plug-In . SVG Version: 6.00 Build 0)  -->
<svg version="1.1" id="Capa_1" xmlns="http://www.w3.org/2000/svg" xmlns:xlink="http://www.w3.org/1999/xlink" x="0px" y="0px"
	 viewBox="0 0 263.494 296.147" style="enable-background:new 0 0 263.494 296.147;" xml:space="preserve">
<path style="fill:#2B3B4F;" d="M258.235,126.235c0.491-6.422-2.808-12.16-8.402-14.615L26.013,13.091
	c-5.527-2.515-11.357-1.979-15.598,1.436c-4.144,3.337-6.01,8.748-4.88,14.14l41.662,240.982l0.013,0.073
	c1.22,6.345,6.19,11.091,12.66,12.091c0.171,0.027,0.341,0.05,0.511,0.071c5.85,0.715,11.123-1.911,13.81-6.868l59.094-103.553
	l114.634-32.456C253.711,137.461,257.76,132.448,258.235,126.235z M200.826,122.018l-81.179,22.989
	c-3.361,0.524-6.647,3.044-8.622,6.615l-42.002,73.535L38.687,50.524L200.826,122.018z"/>
</svg>
