<?xml version="1.0" encoding="iso-8859-1"?>
<!-- Generator: Adobe Illustrator 20.0.0, SVG Export Plug-In . SVG Version: 6.00 Build 0)  -->
<svg version="1.1" id="Capa_1" xmlns="http://www.w3.org/2000/svg" xmlns:xlink="http://www.w3.org/1999/xlink" x="0px" y="0px"
	 viewBox="0 0 263.494 296.147" style="enable-background:new 0 0 263.494 296.147;" xml:space="preserve">
<path style="fill:#2B3B4F;" d="M131.747,0C97.936,0,66.301,4.366,42.671,12.293C14.755,21.658,0,35.464,0,52.219v191.289
	c0,36.167,67.983,52.64,131.147,52.64c32.318,0,63.065-4.19,86.578-11.8c27.348-8.851,43.06-21.816,45.444-37.498
	c0.222-0.978,0.325-1.831,0.325-2.681V52.819C263.494,16.529,195.2,0,131.747,0z M131.747,78.269
	c-68.45,0-104.318-18.91-104.318-25.45c0-6.525,35.868-25.39,104.318-25.39c68.449,0,104.317,18.909,104.317,25.45
	C236.064,59.404,200.196,78.269,131.747,78.269z M27.969,86.472c5.649,2.771,12.176,5.305,19.448,7.553v62.673
	c0,7.711,6.273,13.984,13.985,13.984c7.581,0,13.985-6.102,13.985-13.323V100.58c6.244,1.062,12.973,1.966,20.048,2.694v29.636
	c0,7.711,6.273,13.985,13.985,13.985s13.985-6.274,13.985-13.985v-27.884c2.827,0.073,5.686,0.073,8.464,0.073
	c4.069,0,8.48-0.081,13.444-0.247v74.349c0,7.711,6.273,13.984,13.985,13.984c7.842,0,13.985-5.853,13.985-13.323v-77.084
	c25.443-2.944,46.931-8.421,62.424-15.902v155.119l-0.184-0.002v1.516c0,6.494-35.683,25.271-103.777,25.271
	c-37.574,0-63.079-5.709-77.859-10.499c-17.682-5.729-25.919-12.201-25.919-14.771L27.969,86.472L27.969,86.472z"/>
</svg>
