<?xml version="1.0" encoding="utf-8"?>
<!-- Generator: Adobe Illustrator 20.0.0, SVG Export Plug-In . SVG Version: 6.00 Build 0)  -->
<svg version="1.1" id="Capa_1" xmlns="http://www.w3.org/2000/svg" xmlns:xlink="http://www.w3.org/1999/xlink" x="0px" y="0px"
	 viewBox="0 0 263.5 296.1" style="enable-background:new 0 0 263.5 296.1;" xml:space="preserve">
<style type="text/css">
	.st0{fill:#191E62;}
</style>
<g>
	<g>
		<path class="st0" d="M237.9,199.1L148.4,148l89.5-51.1c4-2.3,5.3-7.3,3-11.2s-7.4-5.3-11.4-3L140,133.8V31.5
			c0-4.5-3.7-8.2-8.3-8.2c-4.6,0-8.3,3.7-8.3,8.2v102.2L33.9,82.6c-4-2.3-9.1-0.9-11.4,3s-0.9,9,3,11.2l89.5,51.1L25.5,199
			c-4,2.3-5.3,7.3-3,11.2c1.5,2.6,4.3,4.1,7.2,4.1c1.4,0,2.8-0.4,4.2-1.1l89.5-51.1v102.2c0,4.5,3.7,8.2,8.3,8.2
			c4.6,0,8.3-3.7,8.3-8.2v-102l89.5,51.1c1.3,0.7,2.7,1.1,4.2,1.1c2.9,0,5.7-1.5,7.2-4.1C243.3,206.4,241.9,201.4,237.9,199.1z"/>
		<path class="st0" d="M131.7,273.5c-5.1,0-9.3-4.1-9.3-9.2V163.8l-88,50.2c-1.6,0.8-3.2,1.2-4.7,1.2c-3.3,0-6.4-1.8-8.1-4.6
			c-1.2-2.1-1.6-4.6-1-6.9c0.6-2.4,2.2-4.4,4.3-5.6l88-50.2L25,97.7c-2.1-1.2-3.7-3.2-4.3-5.6c-0.6-2.4-0.3-4.9,0.9-7
			c2.6-4.4,8.3-5.9,12.8-3.4l88,50.2V31.5c0-5.1,4.2-9.2,9.3-9.2c5.1,0,9.3,4.1,9.3,9.2v100.6l88-50.2c4.4-2.6,10.2-1,12.8,3.4
			c1.2,2.1,1.6,4.6,1,7c-0.6,2.4-2.2,4.4-4.3,5.6l-88,50.2l88,50.2c2.2,1.3,3.8,3.3,4.4,5.7c0.6,2.4,0.2,4.8-1,7
			c-1.6,2.8-4.7,4.6-8.1,4.6c-1.6,0-3.2-0.4-4.7-1.2L141,164v100.3C141,269.4,136.8,273.5,131.7,273.5z M124.4,160.4v103.9
			c0,4,3.3,7.2,7.3,7.2s7.3-3.2,7.3-7.2V160.6l91,52c1.2,0.6,2.4,1,3.7,1c2.6,0,5.1-1.4,6.3-3.6c1-1.7,1.3-3.6,0.8-5.5
			c-0.5-1.9-1.7-3.5-3.4-4.5l-91-52l91-52c1.7-1,2.9-2.5,3.4-4.4c0.5-1.8,0.2-3.8-0.8-5.4c-2-3.5-6.5-4.6-10-2.6l-91,52v-104
			c0-4-3.3-7.2-7.3-7.2s-7.3,3.2-7.3,7.2v103.9l-91-52c-3.5-2-8-0.8-10,2.6c-1,1.6-1.2,3.6-0.7,5.5c0.5,1.9,1.7,3.4,3.4,4.4l91,52
			l-91,52c-1.7,1-2.9,2.5-3.4,4.4c-0.5,1.8-0.2,3.8,0.8,5.4c1.3,2.2,3.7,3.6,6.3,3.6c1.2,0,2.4-0.3,3.8-1L124.4,160.4z"/>
	</g>
	<g>
		<path class="st0" d="M131.7,278.3c-7.7,0-14-6.2-14-13.9V172l-81,46.2c-2.1,1.2-4.5,1.9-7,1.9c-5,0-9.6-2.7-12.1-6.9
			c-1.9-3.2-2.4-6.9-1.4-10.5s3.3-6.6,6.5-8.4l81-46.3l-81-46.2c-6.7-3.8-9-12.3-5.1-18.9c1.9-3.2,4.9-5.5,8.5-6.5s7.4-0.5,10.6,1.4
			l81,46.2V31.5c0-7.6,6.3-13.9,14-13.9s14,6.2,14,13.9V124l81-46.2c3.2-1.8,7-2.3,10.6-1.4s6.6,3.2,8.5,6.5
			c1.9,3.2,2.4,6.9,1.4,10.5s-3.3,6.6-6.5,8.4l-81,46.2l81,46.3l0,0c6.7,3.8,9,12.3,5.1,18.9c-2.5,4.3-7.1,6.9-12.1,6.9
			c-2.4,0-4.9-0.6-7-1.9l-81-46.3v92.5C145.8,272.1,139.5,278.3,131.7,278.3z M129.1,152.5v111.9c0,1.4,1.2,2.6,2.6,2.6
			s2.6-1.2,2.6-2.6v-112l98.1,56c0.4,0.2,0.9,0.4,1.3,0.4c1,0,1.8-0.5,2.3-1.3c0.7-1.2,0.3-2.9-1-3.6l0,0l-98-56l98-56
			c0.8-0.5,1.1-1.2,1.2-1.6s0.2-1.2-0.3-2s-1.2-1.1-1.6-1.2c-0.4-0.1-1.2-0.2-2,0.3l-98,56v-112c0-1.4-1.2-2.6-2.6-2.6
			s-2.6,1.2-2.6,2.6v112l-98-56c-0.8-0.5-1.6-0.4-2-0.3s-1.1,0.4-1.6,1.2c-0.5,0.8-0.4,1.6-0.3,2s0.4,1.1,1.2,1.6l98,56l-98,56
			c-0.8,0.5-1.1,1.2-1.2,1.6s-0.2,1.2,0.3,2s1.3,1.3,2.3,1.3c0.5,0,0.9-0.1,1.3-0.4L129.1,152.5z"/>
		<path class="st0" d="M131.7,279.3c-8.3,0-15-6.7-15-14.9v-90.7l-79.5,45.3c-2.3,1.3-4.9,2-7.5,2c-5.3,0-10.2-2.8-13-7.4
			c-2-3.4-2.6-7.4-1.5-11.3c1.1-3.9,3.6-7.1,7-9l79.5-45.4l-79.5-45.3c-3.5-2-6-5.2-7-9.1c-1-3.8-0.5-7.8,1.5-11.2
			c2-3.4,5.3-5.9,9.1-7c3.9-1.1,7.9-0.5,11.4,1.5l79.5,45.3V31.5c0-8.2,6.7-14.9,15-14.9c8.3,0,15,6.7,15,14.9v90.8l79.5-45.3
			c3.4-1.9,7.5-2.5,11.3-1.5c3.9,1,7.1,3.4,9.1,7c2,3.4,2.6,7.4,1.5,11.3c-1.1,3.9-3.6,7.1-7,9L161.7,148l79.5,45.4
			c3.5,2,6,5.2,7,9.1c1,3.8,0.5,7.8-1.5,11.2c-2.6,4.6-7.6,7.4-13,7.4c-2.7,0-5.4-0.7-7.5-2l-79.5-45.4v90.8
			c0.1,3.9-1.4,7.6-4.2,10.4C139.6,277.7,135.8,279.3,131.7,279.3z M118.7,170.3v94.1c0,7.1,5.8,12.9,13,12.9c3.6,0,6.9-1.4,9.4-3.9
			c2.4-2.4,3.7-5.6,3.6-9v-94.2l82.5,47.2c1.9,1.1,4.2,1.8,6.5,1.8c4.6,0,8.9-2.5,11.2-6.4c1.7-3,2.2-6.4,1.3-9.7
			c-0.9-3.3-3-6.1-6.1-7.8L157.7,148l82.5-47.1c3-1.7,5.1-4.4,6-7.8c0.9-3.3,0.5-6.8-1.3-9.7c-1.8-3.1-4.6-5.2-7.9-6
			c-3.4-0.8-6.9-0.4-9.9,1.3l-82.5,47.1V31.5c0-7.1-5.8-12.9-13-12.9c-7.2,0-13,5.8-13,12.9v94.2L36.2,78.7c-3-1.8-6.5-2.2-9.8-1.3
			c-3.3,0.9-6.1,3.1-7.9,6c-1.7,2.9-2.2,6.4-1.3,9.7c0.9,3.3,3,6.1,6.1,7.8l82.5,47.1l-82.5,47.2c-3,1.7-5.1,4.4-6,7.8
			c-0.9,3.3-0.5,6.8,1.3,9.7c2.4,4,6.7,6.4,11.2,6.4c2.2,0,4.5-0.6,6.5-1.8L118.7,170.3z M131.7,268c-2,0-3.6-1.6-3.6-3.6V154.2
			l-96.5,55c-0.5,0.4-1.1,0.6-1.8,0.6c-1.3,0-2.4-0.6-3.1-1.8c-0.7-1.1-0.6-2.2-0.4-2.8c0.1-0.4,0.5-1.5,1.6-2.2l96.5-55.2
			L27.9,92.8c-1.2-0.7-1.6-1.8-1.7-2.2c-0.1-0.6-0.3-1.7,0.4-2.8c0.7-1.2,1.8-1.5,2.2-1.6c0.6-0.1,1.7-0.3,2.8,0.4l96.5,55.1V31.4
			c0-2,1.6-3.6,3.6-3.6c2,0,3.6,1.6,3.6,3.6v110.3l96.5-55.1c1.1-0.7,2.2-0.5,2.7-0.4c0.4,0.1,1.5,0.5,2.2,1.6
			c0.7,1.1,0.6,2.2,0.4,2.8c-0.1,0.5-0.5,1.5-1.6,2.2L139,147.9l96.5,55.1c0.8,0.4,1.4,1.2,1.7,2.2c0.3,1,0.1,2-0.3,2.8
			c-0.7,1.2-1.9,1.8-3.2,1.8c-0.5,0-1.1-0.2-1.7-0.5l-96.7-55.2v110.3C135.3,266.4,133.7,268,131.7,268z M130.1,150.8v113.6
			c0,0.9,0.7,1.6,1.6,1.6s1.6-0.7,1.6-1.6V150.7l99.6,56.9c0.4,0.2,0.7,0.3,0.8,0.3c0.8,0,1.2-0.5,1.5-0.8c0.2-0.3,0.2-0.8,0.1-1.2
			c-0.1-0.4-0.4-0.8-0.7-1L135,147.9L234.5,91c0.5-0.3,0.7-0.8,0.7-1c0.1-0.3,0.1-0.8-0.2-1.2c-0.3-0.5-0.8-0.7-1-0.8
			c-0.3-0.1-0.7-0.1-1.2,0.2l-99.5,56.9V31.4c0-0.9-0.7-1.6-1.6-1.6s-1.6,0.7-1.6,1.6v113.7L30.6,88.3c-0.5-0.3-1-0.3-1.3-0.2
			c-0.2,0-0.7,0.2-1,0.8c-0.3,0.5-0.2,1-0.2,1.2c0,0.2,0.2,0.7,0.8,1l99.5,56.8l-99.5,56.9c-0.5,0.3-0.7,0.8-0.7,1
			c-0.1,0.3-0.1,0.8,0.2,1.2c0.2,0.4,0.7,0.8,1.5,0.8c0.4,0,0.5-0.1,0.7-0.2l0.1-0.1L130.1,150.8z"/>
	</g>
</g>
</svg>
