<?xml version="1.0" encoding="iso-8859-1"?>
<!-- Generator: Adobe Illustrator 20.0.0, SVG Export Plug-In . SVG Version: 6.00 Build 0)  -->
<svg version="1.1" id="Capa_1" xmlns="http://www.w3.org/2000/svg" xmlns:xlink="http://www.w3.org/1999/xlink" x="0px" y="0px"
	 viewBox="0 0 263.494 296.147" style="enable-background:new 0 0 263.494 296.147;" xml:space="preserve">
<g>
	<path style="fill:#2B3B4F;stroke:#2B3B4F;stroke-width:2;stroke-miterlimit:10;" d="M237.928,199.134l-89.526-51.119l89.514-51.111
		c3.982-2.274,5.346-7.309,3.047-11.247c-2.299-3.938-7.391-5.288-11.373-3.014l-89.52,51.115V31.517
		c0-4.547-3.728-8.234-8.326-8.234c-4.598,0-8.326,3.687-8.326,8.234v102.233L33.912,82.642c-3.982-2.276-9.074-0.924-11.373,3.014
		c-2.299,3.938-0.935,8.974,3.047,11.247l89.514,51.111l-89.526,51.119c-3.982,2.274-5.346,7.309-3.047,11.247
		c1.542,2.641,4.34,4.118,7.218,4.118c1.413,0,2.844-0.356,4.155-1.104l89.52-51.115v102.215c0,4.547,3.728,8.234,8.326,8.234
		c4.598,0,8.326-3.687,8.326-8.234V162.273l89.533,51.122c1.311,0.749,2.743,1.104,4.155,1.104c2.877,0,5.676-1.478,7.218-4.118
		C243.275,206.442,241.911,201.408,237.928,199.134z"/>
	<path style="fill:#2B3B4F;stroke:#2B3B4F;stroke-width:2;stroke-miterlimit:10;" d="M131.746,278.347
		c-7.723,0-14.007-6.214-14.007-13.852v-92.483L36.74,218.26c-2.127,1.215-4.546,1.857-6.996,1.857
		c-4.993,0-9.644-2.655-12.138-6.928c-1.87-3.202-2.367-6.936-1.399-10.51s3.286-6.561,6.525-8.411l81.005-46.254l-80.992-46.246
		c-6.688-3.819-8.988-12.307-5.127-18.922c1.871-3.205,4.891-5.497,8.505-6.455c3.614-0.958,7.39-0.467,10.631,1.386l80.984,46.24
		V31.517c0-7.638,6.283-13.852,14.007-13.852c7.723,0,14.006,6.214,14.006,13.852v92.509l80.999-46.249
		c3.24-1.85,7.015-2.342,10.628-1.384c3.613,0.958,6.633,3.25,8.504,6.454c1.871,3.205,2.368,6.938,1.4,10.511
		c-0.969,3.574-3.286,6.561-6.526,8.411l-80.993,46.246l81.005,46.254v-0.001c6.688,3.819,8.989,12.307,5.129,18.922
		c-2.496,4.274-7.146,6.928-12.138,6.928c-2.449,0-4.867-0.641-6.995-1.856l-81.011-46.257v92.491
		C145.752,272.133,139.469,278.347,131.746,278.347z M129.101,152.549v111.946c0,1.443,1.186,2.616,2.645,2.616
		c1.459,0,2.645-1.173,2.645-2.616V152.541l98.053,55.989c0.408,0.233,0.851,0.351,1.315,0.351c0.96,0,1.82-0.49,2.298-1.31
		c0.728-1.248,0.294-2.85-0.97-3.571v-0.001l-98.047-55.984l98.035-55.977c0.825-0.471,1.126-1.197,1.232-1.588
		s0.213-1.169-0.264-1.984c-0.477-0.817-1.211-1.115-1.606-1.219c-0.395-0.105-1.18-0.211-2.006,0.261l-98.043,55.981V31.517
		c0-1.442-1.186-2.615-2.645-2.615c-1.459,0-2.645,1.173-2.645,2.615V143.48L31.071,87.508c-0.826-0.472-1.611-0.366-2.006-0.263
		c-0.396,0.105-1.13,0.403-1.607,1.22c-0.476,0.816-0.37,1.594-0.264,1.984c0.106,0.391,0.407,1.117,1.232,1.588l98.035,55.977
		l-98.047,55.984c-0.825,0.472-1.126,1.198-1.232,1.589s-0.213,1.168,0.264,1.984c0.479,0.821,1.337,1.31,2.298,1.31
		c0.464,0,0.906-0.118,1.314-0.351L129.101,152.549z"/>
</g>
</svg>
