<?xml version="1.0" encoding="utf-8"?>
<!-- Generator: Adobe Illustrator 20.0.0, SVG Export Plug-In . SVG Version: 6.00 Build 0)  -->
<svg version="1.1" id="Capa_1" xmlns="http://www.w3.org/2000/svg" xmlns:xlink="http://www.w3.org/1999/xlink" x="0px" y="0px"
	 viewBox="0 0 45 58" style="enable-background:new 0 0 45 58;" xml:space="preserve">
<style type="text/css">
	.st0{fill:#CCD9DB;}
	.st1{fill:#BACACC;}
	.st2{fill:#1C1E66;}
	.st3{fill:#FD4F3F;}
	.st4{fill:#21CC9F;}
	.st5{fill:#B376FA;}
</style>
<polygon class="st0" points="45,14 31,0 0,0 0,58 45,58 "/>
<polygon class="st1" points="31,0 31,14 45,14 "/>
<g>
	<path class="st2" d="M27,34H10c-0.6,0-1,0.4-1,1s0.4,1,1,1h17c0.6,0,1-0.4,1-1S27.6,34,27,34z"/>
	<path class="st2" d="M38,30c0-0.6-0.4-1-1-1h-7c-0.6,0-1,0.4-1,1s0.4,1,1,1h7C37.6,31,38,30.6,38,30z"/>
	<path class="st2" d="M15,31h10c0.6,0,1-0.4,1-1s-0.4-1-1-1H15c-0.6,0-1,0.4-1,1S14.4,31,15,31z"/>
	<path class="st3" d="M10,31.5c0.4,0,0.8-0.2,1.1-0.4c0.3-0.3,0.4-0.7,0.4-1.1c0-0.4-0.2-0.8-0.4-1.1c-0.6-0.6-1.6-0.5-2.2,0
		c-0.3,0.3-0.4,0.7-0.4,1.1c0,0.4,0.2,0.8,0.4,1.1C9.2,31.3,9.6,31.5,10,31.5z"/>
	<path class="st4" d="M30.9,33.9c-0.3,0.3-0.4,0.7-0.4,1.1c0,0.4,0.2,0.8,0.4,1.1c0.3,0.3,0.7,0.4,1.1,0.4c0.4,0,0.8-0.2,1.1-0.4
		c0.3-0.3,0.4-0.7,0.4-1.1c0-0.4-0.2-0.8-0.4-1.1C32.5,33.4,31.5,33.4,30.9,33.9z"/>
	<path class="st5" d="M35.9,33.9c-0.3,0.3-0.4,0.7-0.4,1.1c0,0.4,0.2,0.8,0.4,1.1c0.3,0.3,0.7,0.4,1.1,0.4s0.8-0.2,1.1-0.5
		s0.4-0.7,0.4-1.1c0-0.4-0.2-0.8-0.4-1.1C37.5,33.4,36.5,33.4,35.9,33.9z"/>
</g>
<g>
	<path class="st4" d="M15.5,39.2c-2.2,1.1-2.9,3.3-3.2,5.6c-0.4-0.3-0.8-0.7-1.2-1c-1-0.8-2.4,0.6-1.4,1.4c0.9,0.8,1.9,1.6,2.8,2.4
		c0.7,0.6,1.7,0.2,1.7-0.7c0.1-2.2,0.2-4.7,2.3-5.9C17.7,40.3,16.7,38.6,15.5,39.2z"/>
	<path class="st2" d="M30.9,44.2c-0.4-0.6-0.9-1.1-1.6-1.1c-1.5-0.1-4,2-5,0.1c-0.3-0.5-0.9-0.6-1.4-0.4c-1.4,0.9-3.3,2.1-4.8,0.5
		c-0.9-1-2.3,0.5-1.4,1.4c1.9,2,4.3,1.4,6.4,0.3c0.4,0.5,1,0.8,1.7,1.1c0.9,0.3,4.1-1.2,4.3-0.9C29.9,46.3,31.6,45.3,30.9,44.2z"/>
</g>
<path class="st2" d="M20.6,22.1c-0.2-0.4-0.5-0.8-1-1.1l-2.5-1.3c-0.2-0.1-0.3-0.3-0.3-0.5v-0.8c1.3-0.6,2-1.6,2.4-3
	c0.5-0.2,0.9-0.7,0.9-1.3v-0.7c0-0.5-0.3-1-0.7-1.2C19.1,10,17.5,9,14.8,9c0,0,0,0,0,0s0,0,0,0c-2.7,0-4.3,1-4.6,3.5
	c-0.4,0.2-0.7,0.7-0.7,1.2v0.7c0,0.6,0.4,1.1,0.9,1.3c0.4,1.3,1.1,2.4,2.4,3v0.8c0,0.2-0.1,0.4-0.3,0.5L10,21.1
	c-0.5,0.2-0.8,0.6-1,1.1c1.6,1.2,3.6,1.9,5.8,1.9c0,0,0,0,0,0s0,0,0,0C17,24,19,23.3,20.6,22.1z"/>
</svg>
