<?xml version="1.0" encoding="iso-8859-1"?>
<!-- Generator: Adobe Illustrator 20.0.0, SVG Export Plug-In . SVG Version: 6.00 Build 0)  -->
<svg version="1.1" id="Capa_1" xmlns="http://www.w3.org/2000/svg" xmlns:xlink="http://www.w3.org/1999/xlink" x="0px" y="0px"
	 viewBox="0 0 45 58" style="enable-background:new 0 0 45 58;" xml:space="preserve">
<polygon style="fill:#CCD9DB;" points="45,14 31,0 0,0 0,58 45,58 "/>
<polygon style="fill:#BACACC;" points="31,0 31,14 45,14 "/>
<g>
	<path style="fill:#2B3B4F;" d="M27,34H10c-0.552,0-1,0.447-1,1s0.448,1,1,1h17c0.552,0,1-0.447,1-1S27.552,34,27,34z"/>
	<path style="fill:#2B3B4F;" d="M38,30c0-0.553-0.448-1-1-1h-7c-0.552,0-1,0.447-1,1s0.448,1,1,1h7C37.552,31,38,30.553,38,30z"/>
	<path style="fill:#2B3B4F;" d="M15,31h10c0.552,0,1-0.447,1-1s-0.448-1-1-1H15c-0.552,0-1,0.447-1,1S14.448,31,15,31z"/>
	<path style="fill:#FD4F3F;" d="M10,31.517c0.411,0,0.791-0.167,1.08-0.441c0.274-0.289,0.441-0.684,0.441-1.08
		c0-0.397-0.167-0.792-0.441-1.08c-0.563-0.563-1.612-0.548-2.16,0c-0.274,0.287-0.441,0.683-0.441,1.08
		c0,0.395,0.167,0.791,0.441,1.065C9.194,31.349,9.589,31.517,10,31.517z"/>
	<path style="fill:#21CC9F;" d="M30.92,33.917c-0.274,0.287-0.441,0.668-0.441,1.08c0,0.411,0.152,0.791,0.441,1.08
		c0.289,0.274,0.684,0.441,1.08,0.441c0.395,0,0.791-0.167,1.08-0.441c0.289-0.289,0.441-0.669,0.441-1.08
		c0-0.397-0.167-0.792-0.441-1.08C32.502,33.354,31.498,33.354,30.92,33.917z"/>
	<path style="fill:#B376FA;" d="M35.92,33.917c-0.274,0.287-0.441,0.668-0.441,1.08c0,0.411,0.152,0.791,0.441,1.08
		c0.289,0.274,0.684,0.441,1.08,0.441s0.791-0.167,1.08-0.456c0.289-0.289,0.441-0.669,0.441-1.065c0-0.397-0.167-0.792-0.441-1.08
		C37.502,33.354,36.498,33.354,35.92,33.917z"/>
</g>
<g>
	<path style="fill:#21CC9F;" d="M15.525,39.166c-2.191,1.141-2.928,3.321-3.196,5.582c-0.414-0.347-0.828-0.693-1.241-1.04
		c-0.981-0.822-2.404,0.585-1.414,1.415c0.935,0.783,1.871,1.567,2.806,2.351c0.662,0.555,1.676,0.211,1.707-0.707
		c0.073-2.167,0.177-4.743,2.348-5.873C17.679,40.298,16.667,38.572,15.525,39.166z"/>
	<path style="fill:#2B3B4F;" d="M30.863,44.25c-0.423-0.58-0.859-1.063-1.632-1.121c-1.457-0.11-3.958,1.975-4.992,0.132
		c-0.262-0.468-0.91-0.64-1.368-0.359c-1.416,0.869-3.267,2.119-4.756,0.5c-0.875-0.951-2.286,0.467-1.414,1.414
		c1.871,2.034,4.284,1.411,6.407,0.259c0.448,0.481,0.984,0.81,1.697,1.067c0.909,0.328,4.087-1.22,4.333-0.883
		C29.889,46.289,31.626,45.293,30.863,44.25z"/>
</g>
<path style="fill:#2B3B4F;" d="M20.586,22.148c-0.204-0.446-0.538-0.828-0.993-1.056l-2.511-1.283
	c-0.171-0.088-0.279-0.264-0.279-0.457v-0.769c1.289-0.555,2.03-1.634,2.39-2.983c0.543-0.168,0.943-0.671,0.943-1.268v-0.667
	c0-0.511-0.294-0.951-0.718-1.175c-0.294-2.507-1.951-3.521-4.615-3.521c-0.002,0-0.004,0-0.006,0c-0.002,0-0.004,0-0.006,0
	c-2.664,0-4.321,1.014-4.615,3.521c-0.424,0.224-0.718,0.664-0.718,1.175v0.667c0,0.597,0.4,1.1,0.943,1.268
	c0.36,1.349,1.101,2.428,2.39,2.983v0.769c0,0.193-0.108,0.369-0.279,0.457l-2.511,1.283c-0.455,0.228-0.789,0.61-0.993,1.056
	C10.643,23.31,12.636,24,14.793,24c0.002,0,0.003,0,0.005,0c0.002,0,0.003,0,0.005,0C16.959,24,18.952,23.31,20.586,22.148z"/>
</svg>
