<?xml version="1.0" encoding="iso-8859-1"?>
<!-- Generator: Adobe Illustrator 20.0.0, SVG Export Plug-In . SVG Version: 6.00 Build 0)  -->
<svg version="1.1" id="Layer_1" xmlns="http://www.w3.org/2000/svg" xmlns:xlink="http://www.w3.org/1999/xlink" x="0px" y="0px"
	 viewBox="0 0 30.284 30.284" style="enable-background:new 0 0 30.284 30.284;" xml:space="preserve">
<path style="fill:#FD4F3F;" d="M15.142,0c8.349,0,15.142,6.793,15.142,15.142s-6.793,15.142-15.142,15.142
	C6.793,30.284,0,23.491,0,15.142S6.793,0,15.142,0"/>
<path style="fill:#FFFFFF;" d="M23.254,16.694c-0.102-0.935-0.615-2.117-1.372-2.586c0.094-1.035,0.167-2.168,0.203-3.402
	c-0.004-0.848-0.281-1.68-0.746-2.443c0.034-0.108,0.057-0.221,0.057-0.341c0-0.537-0.371-0.984-0.87-1.107
	c0.072-0.177,0.113-0.37,0.113-0.573c0-0.845-0.685-1.53-1.53-1.53c-0.005,0-0.009,0.001-0.014,0.001
	C19.02,3.729,18.206,2.95,17.201,2.95c-0.348,0-0.67,0.1-0.951,0.263c-0.202-0.374-0.593-0.632-1.049-0.632
	c-0.39,0-0.733,0.189-0.951,0.478c-0.309-0.274-0.711-0.445-1.156-0.445c-0.967,0-1.75,0.784-1.75,1.75
	c0,0.01,0.003,0.02,0.003,0.03c-0.094-0.019-0.191-0.03-0.291-0.03c-0.79,0-1.43,0.64-1.43,1.43c0,0.162,0.033,0.314,0.082,0.459
	C9.066,6.304,8.558,6.836,8.558,7.493c0,0.319,0.123,0.606,0.319,0.827c-0.476,0.795-0.73,1.638-0.726,2.469
	c0.048,1.21,0.128,2.32,0.228,3.336c-0.744,0.479-1.247,1.645-1.348,2.57c-0.114,1.045-0.159,2.916,0.821,3.709
	c0.297,0.24,0.653,0.361,1.065,0.361c0.169,0,0.351-0.028,0.539-0.068c0.008,0.034,0.016,0.072,0.023,0.105l0.054,0.24
	c0.401,1.805,1.383,4.518,2.234,5.497c0.866,0.995,2.287,1.521,3.328,1.521h0.024c0.698,0,2.437-0.317,3.493-1.556
	c0.769-0.903,1.77-3.355,2.193-5.441l0.056-0.315c0.176,0.036,0.347,0.039,0.507,0.039c0.412,0,0.768-0.131,1.065-0.371
	C23.413,19.621,23.368,17.739,23.254,16.694z"/>
<path style="fill:#E4E7EC;" d="M21.881,14.108c0.094-1.035,0.167-2.168,0.203-3.402c-0.004-0.848-0.281-1.68-0.746-2.443
	c0.034-0.108,0.057-0.221,0.057-0.341c0-0.537-0.371-0.984-0.87-1.107c0.072-0.177,0.113-0.37,0.113-0.573
	c0-0.845-0.685-1.53-1.53-1.53c-0.005,0-0.009,0.001-0.014,0.001C19.02,3.729,18.206,2.95,17.201,2.95
	c-0.348,0-0.67,0.1-0.951,0.263c-0.202-0.374-0.593-0.632-1.049-0.632c-0.051,0-0.098,0.011-0.147,0.018v13.055L13.58,19.11
	l1.475,0.627v8.317c0.013,0,0.028,0.005,0.04,0.005h0.024c0.698,0,2.437-0.317,3.493-1.556c0.769-0.903,1.77-3.355,2.193-5.441
	l0.056-0.315c0.176,0.036,0.347,0.039,0.507,0.039c0.412,0,0.768-0.131,1.065-0.371c0.98-0.793,0.935-2.675,0.821-3.72
	C23.152,15.759,22.639,14.577,21.881,14.108z"/>
<path style="fill:#404040;" d="M15.055,27.715c-0.206,0-0.483-0.167-0.483-0.373v-1.048c0-0.206,0.278-0.373,0.483-0.373
	c0.206,0,0.483,0.167,0.483,0.373v1.048C15.538,27.549,15.261,27.715,15.055,27.715z"/>
<path style="fill:#404040;" d="M15.117,23.442c-0.499,0-0.976,0.219-1.308,0.602c-0.131,0.15-0.115,0.378,0.035,0.509
	c0.15,0.13,0.378,0.115,0.509-0.035c0.397-0.457,1.131-0.456,1.528,0c0.071,0.082,0.172,0.124,0.272,0.124
	c0.084,0,0.168-0.029,0.236-0.088c0.15-0.131,0.166-0.358,0.035-0.509C16.093,23.662,15.616,23.442,15.117,23.442z"/>
<path style="fill:#404040;" d="M17.222,21.29h-4.209c-0.199,0-0.361,0.123-0.361,0.322c0,0.199,0.161,0.322,0.361,0.322h4.209
	c0.199,0,0.361-0.123,0.361-0.322C17.583,21.414,17.421,21.29,17.222,21.29z"/>
<circle style="fill:#404040;" cx="12.207" cy="15.056" r="0.75"/>
<path style="fill:#404040;" d="M13.757,13.737c0.183,0.08,0.395-0.002,0.476-0.183c0.081-0.182-0.001-0.395-0.183-0.476
	c-0.803-0.357-1.23-0.384-1.952-0.365c-0.841,0.025-1.621,0.547-1.991,1.022c-0.122,0.157-0.094,0.384,0.063,0.506
	c0.066,0.051,0.144,0.076,0.221,0.076c0.107,0,0.214-0.048,0.285-0.139c0.271-0.348,0.869-0.727,1.443-0.744
	C12.768,13.413,13.08,13.436,13.757,13.737z"/>
<circle style="fill:#404040;" cx="18.028" cy="15.056" r="0.75"/>
<path style="fill:#404040;" d="M20.128,13.735c-0.37-0.475-1.15-0.997-1.991-1.022c-0.721-0.019-1.149,0.008-1.952,0.365
	c-0.182,0.081-0.264,0.294-0.183,0.476c0.081,0.181,0.293,0.263,0.476,0.183c0.677-0.301,0.986-0.324,1.638-0.303
	c0.574,0.017,1.172,0.396,1.443,0.744c0.071,0.091,0.177,0.139,0.285,0.139c0.077,0,0.155-0.025,0.221-0.076
	C20.222,14.119,20.25,13.893,20.128,13.735z"/>
<path style="fill:#404040;" d="M13.25,19.315c0.235,0.49,1.026,0.738,2.351,0.738c0.199,0,0.361-0.162,0.361-0.361
	c0-0.199-0.161-0.361-0.361-0.361c-1.305,0-1.679-0.265-1.701-0.33c0-0.001-0.003-0.06,0.104-0.194
	c0.61-0.762,1.354-2.635,1.475-3.712c0.022-0.198-0.12-0.376-0.318-0.398c-0.197-0.023-0.376,0.121-0.399,0.318
	c-0.105,0.937-0.797,2.686-1.321,3.341C13.104,18.777,13.151,19.109,13.25,19.315z"/>
<path style="fill:#404040;" d="M15.117,23.442c-0.499,0-0.975,0.219-1.308,0.602c-0.131,0.15-0.115,0.378,0.035,0.509
	c0.15,0.13,0.378,0.115,0.509-0.035c0.397-0.457,1.131-0.456,1.528,0c0.071,0.082,0.172,0.124,0.272,0.124
	c0.084,0,0.168-0.029,0.236-0.088c0.15-0.131,0.166-0.358,0.035-0.509C16.093,23.662,15.616,23.442,15.117,23.442z"/>
<path style="fill:#404040;" d="M17.222,21.29h-4.209c-0.199,0-0.361,0.123-0.361,0.322c0,0.199,0.161,0.322,0.361,0.322h4.209
	c0.199,0,0.361-0.123,0.361-0.322C17.583,21.414,17.421,21.29,17.222,21.29z"/>
<circle style="fill:#404040;" cx="12.207" cy="15.056" r="0.75"/>
<path style="fill:#404040;" d="M13.757,13.737c0.183,0.08,0.395-0.002,0.476-0.183c0.081-0.182-0.001-0.395-0.183-0.476
	c-0.803-0.357-1.23-0.384-1.952-0.365c-0.841,0.025-1.621,0.547-1.991,1.022c-0.122,0.157-0.094,0.384,0.063,0.506
	c0.066,0.051,0.144,0.076,0.221,0.076c0.107,0,0.214-0.048,0.285-0.139c0.271-0.348,0.869-0.727,1.443-0.744
	C12.768,13.412,13.08,13.436,13.757,13.737z"/>
<circle style="fill:#404040;" cx="18.028" cy="15.056" r="0.75"/>
<path style="fill:#404040;" d="M18.137,12.713c-0.721-0.019-1.149,0.008-1.952,0.365c-0.182,0.081-0.264,0.294-0.183,0.476
	c0.081,0.181,0.293,0.263,0.476,0.183c0.677-0.301,0.986-0.324,1.638-0.303c0.574,0.017,1.172,0.396,1.443,0.744
	c0.071,0.091,0.178,0.139,0.285,0.139c0.077,0,0.155-0.025,0.221-0.076c0.157-0.122,0.185-0.349,0.063-0.506
	C19.758,13.26,18.978,12.738,18.137,12.713z"/>
<path style="fill:#404040;" d="M13.25,19.315c0.235,0.49,1.026,0.738,2.351,0.738c0.199,0,0.361-0.162,0.361-0.361
	c0-0.199-0.161-0.361-0.361-0.361c-1.305,0-1.679-0.265-1.701-0.33c0-0.001-0.003-0.06,0.104-0.194
	c0.61-0.762,1.354-2.635,1.475-3.712c0.022-0.198-0.12-0.376-0.318-0.398c-0.197-0.023-0.376,0.121-0.399,0.318
	c-0.105,0.937-0.797,2.686-1.321,3.341C13.104,18.777,13.151,19.109,13.25,19.315z"/>
<path style="fill:#2B3B4F;" d="M15.117,23.442c-0.499,0-0.976,0.219-1.308,0.602c-0.131,0.15-0.115,0.378,0.035,0.509
	c0.15,0.13,0.378,0.115,0.509-0.035c0.397-0.457,1.131-0.456,1.528,0c0.071,0.082,0.172,0.124,0.272,0.124
	c0.084,0,0.168-0.029,0.236-0.088c0.15-0.131,0.166-0.358,0.035-0.509C16.093,23.662,15.616,23.442,15.117,23.442z"/>
<path style="fill:#2B3B4F;" d="M17.222,21.29h-4.209c-0.199,0-0.361,0.123-0.361,0.322c0,0.199,0.161,0.322,0.361,0.322h4.209
	c0.199,0,0.361-0.123,0.361-0.322C17.583,21.414,17.421,21.29,17.222,21.29z"/>
<circle style="fill:#2B3B4F;" cx="12.207" cy="15.056" r="0.75"/>
<path style="fill:#2B3B4F;" d="M13.757,13.737c0.183,0.08,0.395-0.002,0.476-0.183c0.081-0.182-0.001-0.395-0.183-0.476
	c-0.803-0.357-1.23-0.384-1.952-0.365c-0.841,0.025-1.621,0.547-1.991,1.022c-0.122,0.157-0.094,0.384,0.063,0.506
	c0.066,0.051,0.144,0.076,0.221,0.076c0.107,0,0.214-0.048,0.285-0.139c0.271-0.348,0.869-0.727,1.443-0.744
	C12.768,13.413,13.08,13.436,13.757,13.737z"/>
<circle style="fill:#2B3B4F;" cx="18.028" cy="15.056" r="0.75"/>
<path style="fill:#2B3B4F;" d="M18.137,12.713c-0.721-0.019-1.149,0.008-1.952,0.365c-0.182,0.081-0.264,0.294-0.183,0.476
	c0.081,0.181,0.293,0.263,0.476,0.183c0.677-0.301,0.986-0.324,1.638-0.303c0.574,0.017,1.172,0.396,1.443,0.744
	c0.071,0.091,0.177,0.139,0.285,0.139c0.077,0,0.155-0.025,0.221-0.076c0.157-0.122,0.185-0.349,0.063-0.506
	C19.758,13.26,18.978,12.738,18.137,12.713z"/>
<path style="fill:#2B3B4F;" d="M13.25,19.315c0.235,0.49,1.026,0.738,2.351,0.738c0.199,0,0.361-0.162,0.361-0.361
	c0-0.199-0.161-0.361-0.361-0.361c-1.305,0-1.679-0.265-1.701-0.33c0-0.001-0.003-0.06,0.104-0.194
	c0.61-0.762,1.354-2.635,1.475-3.712c0.022-0.198-0.12-0.376-0.318-0.398c-0.197-0.023-0.376,0.121-0.399,0.318
	c-0.105,0.937-0.797,2.686-1.321,3.341C13.104,18.777,13.151,19.109,13.25,19.315z"/>
<path style="fill:#2B3B4F;" d="M23.254,16.694c-0.102-0.935-0.615-2.117-1.372-2.586c0.094-1.035,0.167-2.168,0.203-3.402
	c-0.004-0.848-0.281-1.68-0.746-2.443c0.034-0.108,0.057-0.221,0.057-0.341c0-0.537-0.371-0.984-0.87-1.107
	c0.072-0.177,0.113-0.37,0.113-0.573c0-0.845-0.685-1.53-1.53-1.53c-0.005,0-0.009,0.001-0.014,0.001
	C19.02,3.729,18.206,2.95,17.201,2.95c-0.348,0-0.67,0.1-0.951,0.263c-0.202-0.374-0.593-0.632-1.049-0.632
	c-0.39,0-0.733,0.189-0.951,0.478c-0.309-0.274-0.711-0.445-1.156-0.445c-0.967,0-1.75,0.784-1.75,1.75
	c0,0.01,0.003,0.02,0.003,0.03c-0.094-0.019-0.191-0.03-0.291-0.03c-0.79,0-1.43,0.64-1.43,1.43c0,0.162,0.033,0.314,0.082,0.459
	C9.066,6.304,8.558,6.836,8.558,7.493c0,0.319,0.123,0.606,0.319,0.827c-0.476,0.795-0.73,1.638-0.726,2.469
	c0.047,1.21,0.128,2.32,0.228,3.336c-0.744,0.479-1.247,1.645-1.348,2.57c-0.114,1.045-0.159,2.916,0.821,3.709
	c0.297,0.24,0.653,0.361,1.065,0.361c0.169,0,0.351-0.028,0.539-0.068c0.008,0.034,0.016,0.072,0.023,0.105l0.054,0.24
	c0.401,1.805,1.383,4.518,2.234,5.497c0.866,0.995,2.287,1.521,3.328,1.521h0.024c0.698,0,2.437-0.317,3.493-1.556
	c0.769-0.903,1.77-3.355,2.193-5.441l0.056-0.315c0.176,0.036,0.347,0.039,0.507,0.039c0.412,0,0.768-0.131,1.065-0.371
	C23.413,19.621,23.368,17.739,23.254,16.694z M13.273,6.936c0.307,0,0.557,0.249,0.557,0.557c0,0.307-0.249,0.557-0.557,0.557
	c-0.307,0-0.557-0.249-0.557-0.557C12.717,7.185,12.966,6.936,13.273,6.936z M8.32,19.823c-0.507-0.41-0.712-1.55-0.549-3.048
	c0.07-0.637,0.362-1.329,0.704-1.746c0.244,2.108,0.563,3.748,0.82,4.938C8.881,20.058,8.557,20.015,8.32,19.823z M20.034,20.824
	c-0.398,1.963-1.262,4.243-1.965,5.077c-0.822,0.974-2.242,1.325-2.564,1.378v-0.701c0-0.206-0.243-0.373-0.449-0.373
	c-0.206,0-0.453,0.167-0.453,0.373v0.705c-0.645-0.067-1.59-0.556-2.321-1.406c-0.763-0.888-1.628-3.32-2-4.994l-0.057-0.244
	c-0.347-1.553-0.877-4.295-1.145-8.28c0.356-0.73,0.658-1.183,1.303-1.339c0-0.638,0-1.596,0-2.335c0-0.125,0.63-0.457,0.739-0.879
	c0.153,0.073,0.261,0.129,0.435,0.156c-0.062,0.156-0.147,0.324-0.197,0.516c-0.255,0.975,0.237,1.623,0.851,1.832
	c0.152,0.052,0.31,0.079,0.477,0.079c0.515,0,1.042-0.255,1.274-0.803c0.078-0.184-0.009-0.395-0.193-0.473
	c-0.184-0.079-0.396,0.008-0.474,0.191c-0.144,0.338-0.553,0.429-0.865,0.323c-0.18-0.061-0.58-0.279-0.4-0.967
	c0.052-0.2,0.114-0.381,0.184-0.541c0.122,0.208,0.303,0.375,0.544,0.463c0.442,0.16,0.803,0.164,1.104,0.013
	c0.279-0.14,0.481-0.407,0.598-0.794c0.036-0.118,0.034-0.241,0.012-0.363c0.12,0.023,0.244,0.037,0.371,0.037
	c0.003,0,0.006-0.001,0.009-0.001c-0.005,0.018-0.013,0.034-0.017,0.051c-0.146,0.655,0.269,1.308,0.926,1.456
	c0.09,0.021,0.182,0.03,0.272,0.03c0.275,0,0.543-0.092,0.762-0.269c0.155-0.125,0.181-0.351,0.056-0.506
	c-0.125-0.155-0.352-0.181-0.507-0.056c-0.12,0.096-0.274,0.132-0.424,0.097c-0.27-0.061-0.441-0.328-0.381-0.595
	c0.029-0.128,0.106-0.238,0.217-0.308c0.103-0.065,0.224-0.085,0.344-0.066c0.302,0.247,0.682,0.401,1.102,0.401
	c0.35,0,0.674-0.105,0.948-0.282c0.263,0.214,0.594,0.347,0.96,0.347c0.005,0,0.01-0.002,0.015-0.002
	c-0.007,0.05-0.177,0.099-0.177,0.151c0,0.563,0.459,1.028,0.781,1.123c0,0.67,0,1.435,0,1.973c0.645,0.16,1.083,0.629,1.446,1.392
	c-0.222,3.746-0.712,6.335-1.049,7.965L20.034,20.824z M21.964,19.824c-0.232,0.187-0.549,0.233-0.952,0.149
	c0.238-1.169,0.549-2.828,0.78-4.967c0.349,0.415,0.65,1.121,0.721,1.769C22.676,18.274,22.471,19.413,21.964,19.824z"/>
<g>
</g>
<g>
</g>
<g>
</g>
<g>
</g>
<g>
</g>
<g>
</g>
<g>
</g>
<g>
</g>
<g>
</g>
<g>
</g>
<g>
</g>
<g>
</g>
<g>
</g>
<g>
</g>
<g>
</g>
</svg>
